<svg xmlns="http://www.w3.org/2000/svg" viewBox="0 0 800 600" role="img" aria-label="High-visibility industrial cable extension reel">
  <defs>
    <linearGradient id="ral-bg" x1="0" y1="0" x2="1" y2="1">
      <stop offset="0%" stop-color="#fff7ed" />
      <stop offset="50%" stop-color="#ffedd5" />
      <stop offset="100%" stop-color="#fed7aa" />
    </linearGradient>
    <linearGradient id="ral-orange" x1="0" y1="0" x2="0" y2="1">
      <stop offset="0%" stop-color="#fb923c" />
      <stop offset="50%" stop-color="#ea580c" />
      <stop offset="100%" stop-color="#c2410c" />
    </linearGradient>
    <linearGradient id="ral-cable" x1="0" y1="0" x2="1" y2="0">
      <stop offset="0%" stop-color="#f97316" />
      <stop offset="30%" stop-color="#fb923c" />
      <stop offset="70%" stop-color="#ea580c" />
      <stop offset="100%" stop-color="#9a3412" />
    </linearGradient>
    <linearGradient id="ral-frame" x1="0" y1="0" x2="1" y2="1">
      <stop offset="0%" stop-color="#475569" />
      <stop offset="50%" stop-color="#1e293b" />
      <stop offset="100%" stop-color="#0f172a" />
    </linearGradient>
    <linearGradient id="ral-metal" x1="0" y1="0" x2="1" y2="0">
      <stop offset="0%" stop-color="#e2e8f0" />
      <stop offset="50%" stop-color="#94a3b8" />
      <stop offset="100%" stop-color="#64748b" />
    </linearGradient>
    <linearGradient id="ral-brass" x1="0" y1="0" x2="1" y2="1">
      <stop offset="0%" stop-color="#fef08a" />
      <stop offset="50%" stop-color="#eab308" />
      <stop offset="100%" stop-color="#a16207" />
    </linearGradient>
    <radialGradient id="ral-drum-center" cx="50%" cy="50%" r="50%">
      <stop offset="0%" stop-color="#334155" />
      <stop offset="85%" stop-color="#1e293b" />
      <stop offset="100%" stop-color="#0f172a" />
    </radialGradient>
    <filter id="ral-shadow" x="-10%" y="-10%" width="120%" height="120%">
      <feDropShadow dx="0" dy="12" stdDeviation="16" flood-color="#7c2d12" flood-opacity="0.22" />
    </filter>
  </defs>

  <!-- Canvas Background -->
  <rect width="800" height="600" rx="32" fill="url(#ral-bg)" />

  <!-- Subtle Engineering Grid -->
  <g stroke="#ea580c" stroke-width="1" opacity="0.08">
    <line x1="80" y1="0" x2="80" y2="600" />
    <line x1="160" y1="0" x2="160" y2="600" />
    <line x1="240" y1="0" x2="240" y2="600" />
    <line x1="320" y1="0" x2="320" y2="600" />
    <line x1="400" y1="0" x2="400" y2="600" />
    <line x1="480" y1="0" x2="480" y2="600" />
    <line x1="560" y1="0" x2="560" y2="600" />
    <line x1="640" y1="0" x2="640" y2="600" />
    <line x1="720" y1="0" x2="720" y2="600" />
    <line x1="0" y1="80" x2="800" y2="800" />
    <line x1="0" y1="160" x2="800" y2="160" />
    <line x1="0" y1="240" x2="800" y2="240" />
    <line x1="0" y1="320" x2="800" y2="320" />
    <line x1="0" y1="400" x2="800" y2="400" />
    <line x1="0" y1="480" x2="800" y2="480" />
  </g>

  <!-- Ambient Ground Shadow -->
  <ellipse cx="380" cy="515" rx="270" ry="36" fill="#431407" opacity="0.18" />
  <ellipse cx="610" cy="495" rx="85" ry="18" fill="#431407" opacity="0.14" />

  <!-- Heavy Duty Tubular Steel Stand (Back Leg) -->
  <path d="M290 490 L240 500 L210 320 L270 120" stroke="url(#ral-frame)" stroke-width="26" stroke-linecap="round" stroke-linejoin="round" fill="none" opacity="0.75" />

  <!-- Main Cable Reel Drum Assembly -->
  <g filter="url(#ral-shadow)">
    <!-- Rear Flange Disc -->
    <ellipse cx="360" cy="305" rx="195" ry="195" fill="#1e293b" stroke="#0f172a" stroke-width="8" />

    <!-- Multiple Coiled High-Vis Orange Cable Layers -->
    <g fill="none" stroke="url(#ral-cable)" stroke-width="22" stroke-linecap="round">
      <ellipse cx="360" cy="305" rx="172" ry="172" stroke="#ea580c" />
      <ellipse cx="360" cy="305" rx="154" ry="154" stroke="#f97316" />
      <ellipse cx="360" cy="305" rx="136" ry="136" stroke="#fb923c" />
      <ellipse cx="360" cy="305" rx="118" ry="118" stroke="#f97316" />
    </g>

    <!-- Front Drum Circular Faceplate -->
    <circle cx="360" cy="305" r="105" fill="url(#ral-drum-center)" stroke="url(#ral-orange)" stroke-width="8" />
    <circle cx="360" cy="305" r="95" fill="#0f172a" stroke="#334155" stroke-width="3" />

    <!-- 2 Built-in French/Schuko Grounded Sockets on Faceplate -->
    <!-- Socket 1 (Top) -->
    <circle cx="360" cy="255" r="30" fill="#1e293b" stroke="#475569" stroke-width="3" />
    <circle cx="350" cy="255" r="4.5" fill="#020617" />
    <circle cx="370" cy="255" r="4.5" fill="#020617" />
    <rect x="357" y="235" width="6" height="8" rx="2" fill="url(#ral-brass)" />
    <rect x="357" y="267" width="6" height="8" rx="2" fill="url(#ral-brass)" />

    <!-- Socket 2 (Bottom) -->
    <circle cx="360" cy="345" r="30" fill="#1e293b" stroke="#475569" stroke-width="3" />
    <circle cx="350" cy="345" r="4.5" fill="#020617" />
    <circle cx="370" cy="345" r="4.5" fill="#020617" />
    <rect x="357" y="325" width="6" height="8" rx="2" fill="url(#ral-brass)" />
    <rect x="357" y="357" width="6" height="8" rx="2" fill="url(#ral-brass)" />

    <!-- Thermal Overload Cutout Switch (Red Button) & Indicator -->
    <circle cx="305" cy="305" r="10" fill="#dc2626" stroke="#ef4444" stroke-width="2" />
    <circle cx="305" cy="305" r="5" fill="#f87171" />
    <text x="305" y="325" font-family="sans-serif" font-size="8" font-weight="bold" fill="#94a3b8" text-anchor="middle">RESET</text>

    <!-- Winding Handle Crank on Drum -->
    <g transform="translate(425 295)">
      <rect x="0" y="-8" width="30" height="16" rx="6" fill="#475569" />
      <circle cx="28" cy="0" r="14" fill="#f97316" stroke="#ea580c" stroke-width="3" />
      <circle cx="28" cy="0" r="7" fill="#0f172a" />
    </g>

    <!-- Center Technical Markings -->
    <text x="360" y="303" font-family="sans-serif" font-size="11" font-weight="900" fill="#ea580c" text-anchor="middle" letter-spacing="1">3000W</text>
    <text x="360" y="315" font-family="sans-serif" font-size="8" font-weight="bold" fill="#64748b" text-anchor="middle">230V ~ 16A</text>
  </g>

  <!-- Front Tubular Steel Stand & Handle -->
  <path d="M260 505 L220 505 L260 300 L320 90 L400 90 L460 300 L500 505 L460 505" stroke="url(#ral-frame)" stroke-width="24" stroke-linecap="round" stroke-linejoin="round" fill="none" />
  <!-- Ergonomic Orange Comfort Grip on Top Handle -->
  <rect x="330" y="77" width="60" height="26" rx="8" fill="url(#ral-orange)" stroke="#c2410c" stroke-width="3" />
  <!-- Rubber Anti-Slip Feet -->
  <rect x="210" y="495" width="40" height="20" rx="6" fill="#0f172a" />
  <rect x="470" y="495" width="40" height="20" rx="6" fill="#0f172a" />

  <!-- Unspooled Dynamic Extension Cable to the Front-Right -->
  <path d="M430 430 C490 490 520 480 570 470 C610 460 630 475 660 470" stroke="url(#ral-cable)" stroke-width="18" stroke-linecap="round" fill="none" />

  <!-- Heavy Duty European Plug on Forefront -->
  <g transform="translate(640 435) rotate(-18)">
    <!-- Strain Relief Boot -->
    <path d="M-22 18 L-8 15 L-8 33 L-22 30 Z" fill="#334155" />
    <!-- Plug Body -->
    <rect x="-8" y="10" width="55" height="30" rx="8" fill="#1e293b" stroke="#0f172a" stroke-width="3" />
    <!-- High-Vis Grip Ring -->
    <rect x="2" y="12" width="10" height="26" rx="3" fill="url(#ral-orange)" />
    <!-- Plug Face & Brass Prongs -->
    <rect x="47" y="15" width="18" height="6" rx="2" fill="url(#ral-brass)" />
    <rect x="47" y="27" width="18" height="6" rx="2" fill="url(#ral-brass)" />
    <circle cx="50" cy="24" r="3" fill="#cbd5e1" />
  </g>
</svg>